<svg width="1200" height="630" viewBox="0 0 1200 630" xmlns="http://www.w3.org/2000/svg">
  <defs>
    <linearGradient id="bg" x1="0" y1="0" x2="1200" y2="630" gradientUnits="userSpaceOnUse">
      <stop offset="0%" stop-color="#020204"/>
      <stop offset="100%" stop-color="#0a0a1a"/>
    </linearGradient>
    <linearGradient id="accent" x1="0" y1="0" x2="1" y2="0">
      <stop offset="0%" stop-color="#00D4FF"/>
      <stop offset="100%" stop-color="#00e676"/>
    </linearGradient>
    <linearGradient id="gold" x1="0" y1="0" x2="1" y2="0">
      <stop offset="0%" stop-color="#f5c842"/>
      <stop offset="100%" stop-color="#cc9900"/>
    </linearGradient>
    <filter id="glow">
      <feGaussianBlur stdDeviation="4" result="coloredBlur"/>
      <feMerge>
        <feMergeNode in="coloredBlur"/>
        <feMergeNode in="SourceGraphic"/>
      </feMerge>
    </filter>
  </defs>

  <rect width="1200" height="630" fill="url(#bg)"/>

  <line x1="0" y1="0" x2="1200" y2="0" stroke="rgba(0,212,255,0.15)" stroke-width="1"/>
  <line x1="0" y1="630" x2="1200" y2="630" stroke="rgba(0,212,255,0.15)" stroke-width="1"/>

  <g opacity="0.06" stroke="#00D4FF" stroke-width="0.5">
    <line x1="0" y1="60" x2="1200" y2="60"/>
    <line x1="0" y1="120" x2="1200" y2="120"/>
    <line x1="0" y1="180" x2="1200" y2="180"/>
    <line x1="0" y1="240" x2="1200" y2="240"/>
    <line x1="0" y1="300" x2="1200" y2="300"/>
    <line x1="0" y1="360" x2="1200" y2="360"/>
    <line x1="0" y1="420" x2="1200" y2="420"/>
    <line x1="0" y1="480" x2="1200" y2="480"/>
    <line x1="0" y1="540" x2="1200" y2="540"/>
    <line x1="120" y1="0" x2="120" y2="630"/>
    <line x1="240" y1="0" x2="240" y2="630"/>
    <line x1="360" y1="0" x2="360" y2="630"/>
    <line x1="480" y1="0" x2="480" y2="630"/>
    <line x1="600" y1="0" x2="600" y2="630"/>
    <line x1="720" y1="0" x2="720" y2="630"/>
    <line x1="840" y1="0" x2="840" y2="630"/>
    <line x1="960" y1="0" x2="960" y2="630"/>
    <line x1="1080" y1="0" x2="1080" y2="630"/>
  </g>

  <rect x="0" y="0" width="5" height="630" fill="url(#accent)"/>

  <text x="80" y="90" font-family="Inter, system-ui, sans-serif" font-size="22" font-weight="700" fill="#00D4FF" letter-spacing="2">ENTANGLEWEALTH</text>
  <text x="80" y="115" font-family="Inter, system-ui, sans-serif" font-size="14" fill="rgba(255,255,255,0.4)" letter-spacing="1">INSTITUTIONAL INTELLIGENCE FOR EVERYONE</text>

  <line x1="80" y1="135" x2="1120" y2="135" stroke="rgba(0,212,255,0.12)" stroke-width="1"/>

  <text x="80" y="230" font-family="Inter, system-ui, sans-serif" font-size="72" font-weight="800" fill="white" letter-spacing="-2">Institutional</text>
  <text x="80" y="320" font-family="Inter, system-ui, sans-serif" font-size="72" font-weight="800" fill="url(#accent)" letter-spacing="-2" filter="url(#glow)">Intelligence</text>
  <text x="80" y="400" font-family="Inter, system-ui, sans-serif" font-size="48" font-weight="700" fill="url(#gold)">For Everyone.</text>

  <text x="80" y="460" font-family="Inter, system-ui, sans-serif" font-size="20" fill="rgba(255,255,255,0.55)" letter-spacing="0.3">AI stock signals · Options flow · Tax optimization · Free forever</text>

  <line x1="80" y1="490" x2="1120" y2="490" stroke="rgba(0,212,255,0.12)" stroke-width="1"/>

  <g transform="translate(80, 510)">
    <rect x="0" y="0" width="200" height="68" rx="10" fill="rgba(0,212,255,0.06)" stroke="rgba(0,212,255,0.15)" stroke-width="1"/>
    <text x="100" y="28" font-family="Inter, system-ui, monospace" font-size="26" font-weight="700" fill="#00D4FF" text-anchor="middle">87%</text>
    <text x="100" y="50" font-family="Inter, system-ui, sans-serif" font-size="11" fill="rgba(255,255,255,0.35)" text-anchor="middle" letter-spacing="1">AVG ACCURACY</text>
  </g>

  <g transform="translate(300, 510)">
    <rect x="0" y="0" width="200" height="68" rx="10" fill="rgba(0,230,118,0.06)" stroke="rgba(0,230,118,0.15)" stroke-width="1"/>
    <text x="100" y="28" font-family="Inter, system-ui, monospace" font-size="26" font-weight="700" fill="#00e676" text-anchor="middle">1,247+</text>
    <text x="100" y="50" font-family="Inter, system-ui, sans-serif" font-size="11" fill="rgba(255,255,255,0.35)" text-anchor="middle" letter-spacing="1">SIGNALS DELIVERED</text>
  </g>

  <g transform="translate(520, 510)">
    <rect x="0" y="0" width="200" height="68" rx="10" fill="rgba(245,200,66,0.06)" stroke="rgba(245,200,66,0.15)" stroke-width="1"/>
    <text x="100" y="28" font-family="Inter, system-ui, monospace" font-size="26" font-weight="700" fill="#f5c842" text-anchor="middle">4,800+</text>
    <text x="100" y="50" font-family="Inter, system-ui, sans-serif" font-size="11" fill="rgba(255,255,255,0.35)" text-anchor="middle" letter-spacing="1">ACTIVE TRADERS</text>
  </g>

  <g transform="translate(780, 510)">
    <rect x="0" y="0" width="340" height="68" rx="10" fill="rgba(245,200,66,0.08)" stroke="rgba(245,200,66,0.2)" stroke-width="1"/>
    <text x="170" y="28" font-family="Inter, system-ui, sans-serif" font-size="16" font-weight="700" fill="#f5c842" text-anchor="middle">Start Free — No Credit Card</text>
    <text x="170" y="52" font-family="Inter, system-ui, monospace" font-size="12" fill="rgba(255,255,255,0.4)" text-anchor="middle">entanglewealth.com</text>
  </g>
</svg>
